<?xml version="1.0" encoding="iso-8859-1"?>
<!-- Generator: Adobe Illustrator 19.0.0, SVG Export Plug-In . SVG Version: 6.00 Build 0)  -->
<svg version="1.1" id="Layer_1" xmlns="http://www.w3.org/2000/svg" xmlns:xlink="http://www.w3.org/1999/xlink" x="0px" y="0px"
	 viewBox="0 0 512 512" style="enable-background:new 0 0 512 512;" xml:space="preserve">
<path style="fill:#D6E5F6;" d="M435.104,1.584c-8.94-3.478-19.104-1.112-25.591,5.964L68.18,379.91
	c-6.237,6.803-7.863,16.651-4.149,25.097c3.717,8.448,12.075,13.902,21.302,13.902h318.061v23.273
	c0,12.851,10.422,23.273,23.273,23.273c12.854,0,23.273-10.422,23.273-23.273V23.273C449.939,13.676,444.048,5.062,435.104,1.584z"
	/>
<path style="fill:#BCD6F2;" d="M435.104,1.584c-8.94-3.478-19.104-1.112-25.591,5.964L256,175.012v243.897h147.394v23.273
	c0,12.851,10.422,23.273,23.273,23.273c12.854,0,23.273-10.422,23.273-23.273V23.273C449.939,13.676,444.048,5.062,435.104,1.584z"
	/>
<path style="fill:#8CB7E8;" d="M380.121,512H85.333c-12.851,0-23.273-10.422-23.273-23.273c0-12.854,10.422-23.273,23.273-23.273
	h294.788c12.833,0,23.273-10.44,23.273-23.273c0-12.834-10.44-23.273-23.273-23.273H85.333c-12.851,0-23.273-10.422-23.273-23.273
	c0-12.854,10.422-23.273,23.273-23.273h294.788c38.499,0,69.818,31.322,69.818,69.818S418.622,512,380.121,512z"/>
<g>
</g>
<g>
</g>
<g>
</g>
<g>
</g>
<g>
</g>
<g>
</g>
<g>
</g>
<g>
</g>
<g>
</g>
<g>
</g>
<g>
</g>
<g>
</g>
<g>
</g>
<g>
</g>
<g>
</g>
</svg>
